<svg height="512" viewBox="0 0 512 512" width="512" xmlns="http://www.w3.org/2000/svg"><path clip-rule="evenodd" d="M10 494h67.492V335.392H43.76c-18.567 0-33.76 15.203-33.76 33.781z" fill="#80b6ff" fill-rule="evenodd"/><path clip-rule="evenodd" d="M152.608 421.872h68.937V494h-68.937z" fill="#ffcd69" fill-rule="evenodd"/><path clip-rule="evenodd" d="M221.546 421.872h68.909V494h-68.909z" fill="#ffe6b4" fill-rule="evenodd"/><path clip-rule="evenodd" d="M290.454 421.872h68.909V494h-68.909z" fill="#ffcd69" fill-rule="evenodd"/><path clip-rule="evenodd" d="M280.533 206.368h49.095v43.679h-49.095zm-98.162 0h49.067v43.679h-49.067z" fill="#ecf2f3" fill-rule="evenodd"/><path clip-rule="evenodd" d="M231.438 206.368h49.095v43.679h-49.095z" fill="#ecf2f3" fill-rule="evenodd"/><path clip-rule="evenodd" d="M186.567 156.987c12.529 0 22.705-10.182 22.705-22.747 0-12.537-10.176-22.719-22.705-22.719-12.557 0-22.733 10.182-22.733 22.719-.001 12.565 10.175 22.747 22.733 22.747zm138.866 0c12.529 0 22.705-10.182 22.705-22.747 0-12.537-10.176-22.719-22.705-22.719-12.557 0-22.733 10.182-22.733 22.719 0 12.565 10.176 22.747 22.733 22.747z" fill="#ffcd69" fill-rule="evenodd"/><path clip-rule="evenodd" d="M31.883 63.53c10.403 10.409 27.269 10.409 37.7 0 10.403-10.409 10.403-27.314 0-37.723-10.431-10.409-27.297-10.409-37.7 0s-10.403 27.314 0 37.723zm410.534 0c10.403 10.409 27.269 10.409 37.672 0 10.431-10.409 10.431-27.314 0-37.723-10.403-10.409-27.269-10.409-37.672 0s-10.403 27.314 0 37.723z" fill="#ffe6b4" fill-rule="evenodd"/><path clip-rule="evenodd" d="M434.48 494h67.095V363.869c-2.579-16.082-16.582-28.477-33.335-28.477h-33.76z" fill="#80b6ff" fill-rule="evenodd"/><path clip-rule="evenodd" d="M329.628 250.047h128.804c0-104.434-79.028-190.403-180.507-201.351v19.486c0 5.105-4.167 9.303-9.297 9.303h-25.285c-5.102 0-9.297-4.198-9.297-9.303V48.696C132.568 59.644 53.568 145.614 53.568 250.047h128.804v-43.679h147.257v43.679zm18.51-115.807c0 12.565-10.176 22.747-22.705 22.747-12.557 0-22.733-10.182-22.733-22.747 0-12.537 10.176-22.719 22.733-22.719 12.529 0 22.705 10.182 22.705 22.719zm-161.571-22.719c12.529 0 22.705 10.182 22.705 22.719 0 12.565-10.176 22.747-22.705 22.747-12.557 0-22.733-10.182-22.733-22.747-.001-12.537 10.175-22.719 22.733-22.719zm-33.959 310.351h206.755V494h75.117V304.902H77.492V494h75.116z" fill="#bfdbff" fill-rule="evenodd"/><path clip-rule="evenodd" d="M99.063 304.902h313.874v-54.855H99.063zM243.344 77.485h25.285c5.131 0 9.297-4.198 9.297-9.303V35.195c0-5.134-4.167-9.303-9.297-9.303h-25.285c-5.102 0-9.297 4.169-9.297 9.303v32.987c-.001 5.105 4.194 9.303 9.297 9.303z" fill="#80b6ff" fill-rule="evenodd"/><path d="M219.271 134.24c0-18.041-14.672-32.719-32.705-32.719-18.049 0-32.733 14.678-32.733 32.719 0 18.057 14.685 32.748 32.733 32.748 18.034-.001 32.705-14.691 32.705-32.748zm-45.438 0c0-7.013 5.712-12.719 12.733-12.719 7.006 0 12.705 5.706 12.705 12.719 0 7.029-5.699 12.748-12.705 12.748-7.021-.001-12.733-5.719-12.733-12.748zm151.601 32.747c18.033 0 32.705-14.69 32.705-32.748 0-18.041-14.672-32.719-32.705-32.719-18.049 0-32.733 14.678-32.733 32.719-.001 18.058 14.684 32.748 32.733 32.748zm0-45.466c7.006 0 12.705 5.706 12.705 12.719 0 7.029-5.699 12.748-12.705 12.748-7.021 0-12.733-5.719-12.733-12.748-.001-7.013 5.711-12.719 12.733-12.719zm59.015 243.414h.028c5.522 0 9.986-4.477 9.986-10s-4.492-10-10.015-10-10 4.477-10 10 4.479 10 10.001 10z"/><path d="M468.24 325.393h-23.76v-20.491c0-5.523-4.478-10-10-10h-11.543v-34.854h35.495c5.522 0 10-4.477 10-10 0-52.745-19.454-103.33-54.778-142.436-.183-.202-.371-.398-.555-.6l30.297-30.316c5.397 3.024 11.501 4.641 17.856 4.641 9.787 0 18.988-3.813 25.899-10.729 6.938-6.924 10.76-16.136 10.76-25.939 0-9.8-3.817-19.008-10.75-25.931C480.241 11.813 471.04 8 461.253 8s-18.988 3.813-25.909 10.738c-11.841 11.847-13.86 29.847-6.078 43.805L398.96 92.867c-30.989-28.236-69.55-46.682-111.034-52.951v-4.721c0-10.644-8.657-19.303-19.298-19.303h-25.284c-10.641 0-19.298 8.659-19.298 19.303v4.721c-41.483 6.269-80.043 24.716-111.027 52.954L82.733 62.546c7.784-13.958 5.764-31.961-6.086-43.817C62.338 4.45 39.085 4.456 24.81 18.738c-14.289 14.298-14.289 37.563 0 51.861 7.139 7.143 16.521 10.714 25.909 10.714a36.73 36.73 0 0017.865-4.633l30.298 30.336c-.182.2-.369.395-.551.596-35.315 39.104-54.764 89.688-54.764 142.435 0 5.523 4.478 10 10 10h35.495v34.854H77.491c-5.522 0-10 4.477-10 10v20.491H43.76c-24.129 0-43.76 19.64-43.76 43.781V494c0 5.523 4.478 10 10 10h492c5.522 0 10-4.477 10-10V369.173c0-24.14-19.631-43.78-43.76-43.78zM449.49 32.876c3.143-3.145 7.32-4.876 11.763-4.876s8.62 1.731 11.763 4.876l.01.009c3.151 3.145 4.887 7.33 4.887 11.784s-1.735 8.638-4.896 11.792c-3.143 3.144-7.32 4.875-11.763 4.875s-8.62-1.731-11.763-4.875c-6.5-6.502-6.5-17.083-.001-23.585zM62.52 56.452c-6.508 6.493-17.079 6.499-23.563.01-6.498-6.502-6.498-17.083 0-23.585 6.486-6.49 17.058-6.484 23.554 0 6.498 6.501 6.498 17.082.009 23.575zM67.491 484H20V369.173c0-13.113 10.658-23.781 23.76-23.781h23.731zM244.046 48.664V35.892h23.88v31.593h-23.88zM63.821 240.047c4.6-90.375 71.246-165.091 160.225-179.881v8.015c0 10.644 8.657 19.303 19.298 19.303h25.284c10.641 0 19.298-8.659 19.298-19.303v-8.015c88.994 14.791 155.652 89.507 160.253 179.881h-108.55v-33.68c0-5.523-4.478-10-10-10H182.371c-5.522 0-10 4.477-10 10v33.68zm255.808-23.679v23.68h-29.096v-23.68zm-49.096 0v23.68h-29.095v-23.68zm-49.095 0v23.68h-29.067v-23.68zM211.546 484h-48.938v-52.128h48.938zm68.908 0h-48.908v-52.128h48.908zm68.909 0h-48.909v-52.128h48.909zm75.117 0h-55.117v-62.128c0-5.523-4.478-10-10-10H152.608c-5.522 0-10 4.477-10 10V484H87.491V314.902h123.595c5.522 0 10-4.477 10-10s-4.478-10-10-10H109.063v-34.854h293.875v34.854H300.886c-5.522 0-10 4.477-10 10s4.478 10 10 10H424.48zm67.52 0h-47.52V345.393h23.76c13.102 0 23.76 10.668 23.76 23.781z"/><path d="M127.494 344.935c-5.522 0-10 4.477-10 10s4.478 10 10 10h.057c5.522 0 9.972-4.477 9.972-10s-4.506-10-10.029-10zm128.491-50.033c-5.522 0-10 4.477-10 10s4.478 10 10 10h.058c5.522 0 9.972-4.477 9.972-10s-4.507-10-10.03-10z"/></svg>